<svg width="141" height="94" viewBox="0 0 141 94" fill="none" xmlns="http://www.w3.org/2000/svg">
<path d="M0.111719 72V2H40.7117C44.1784 2 47.3117 2.76666 50.1117 4.3C52.9784 5.83333 55.2451 7.96666 56.9117 10.7C58.6451 13.4333 59.5117 16.6667 59.5117 20.4C59.5117 22.6 59.0784 24.7 58.2117 26.7C57.4117 28.7 56.2451 30.4667 54.7117 32C53.2451 33.5333 51.5451 34.7667 49.6117 35.7C51.8784 36.6333 53.8784 37.9667 55.6117 39.7C57.4117 41.4333 58.8117 43.4333 59.8117 45.7C60.8784 47.9667 61.4117 50.4 61.4117 53C61.4117 56.8 60.5117 60.1333 58.7117 63C56.9784 65.8667 54.6451 68.1 51.7117 69.7C48.7784 71.2333 45.5117 72 41.9117 72H0.111719ZM16.9117 58.1H37.5117C38.9117 58.1 40.1451 57.7667 41.2117 57.1C42.3451 56.4333 43.2451 55.5333 43.9117 54.4C44.5784 53.2667 44.9117 52.0333 44.9117 50.7C44.9117 49.3 44.5784 48.0667 43.9117 47C43.2451 45.8667 42.3451 44.9667 41.2117 44.3C40.1451 43.6333 38.9117 43.3 37.5117 43.3H16.9117V58.1ZM16.9117 29.9H35.8117C37.1451 29.9 38.3117 29.6 39.3117 29C40.3784 28.3333 41.2117 27.5 41.8117 26.5C42.4117 25.4333 42.7117 24.2667 42.7117 23C42.7117 21.6667 42.4117 20.5 41.8117 19.5C41.2117 18.4333 40.3784 17.6 39.3117 17C38.3117 16.3333 37.1451 16 35.8117 16H16.9117V29.9ZM121.508 93.8C117.374 93.8 113.841 93.0667 110.908 91.6C107.974 90.1333 105.741 88.0667 104.208 85.4C102.674 82.7333 101.908 79.6333 101.908 76.1C101.908 75.3667 101.908 74.6 101.908 73.8C101.974 73.0667 102.074 72.2667 102.208 71.4C97.0745 71.3333 92.4078 70.3667 88.2078 68.5C84.0078 66.6333 80.3745 64.1 77.3078 60.9C74.3078 57.7 71.9745 54 70.3078 49.8C68.7078 45.5333 67.9078 41 67.9078 36.2C67.9078 31.2667 68.7411 26.6667 70.4078 22.4C72.1411 18.1333 74.5745 14.4 77.7078 11.2C80.9078 7.93333 84.7411 5.4 89.2078 3.6C93.6745 1.73333 98.6411 0.799999 104.108 0.799999C109.574 0.799999 114.541 1.66666 119.008 3.4C123.474 5.13333 127.308 7.6 130.508 10.8C133.708 14 136.141 17.7 137.808 21.9C139.541 26.1 140.408 30.6667 140.408 35.6V74.1C140.408 77.6333 139.708 80.9 138.308 83.9C136.974 86.9 134.908 89.3 132.108 91.1C129.308 92.9 125.774 93.8 121.508 93.8ZM120.608 79.5C121.874 79.5 122.841 78.9667 123.508 77.9C124.241 76.9 124.608 75.5667 124.608 73.9V57.6C123.208 58.8 121.974 60.0333 120.908 61.3C119.908 62.5667 119.108 63.9 118.508 65.3C117.908 66.6333 117.441 68.0333 117.108 69.5C116.841 70.9 116.708 72.3667 116.708 73.9C116.708 75.1 116.874 76.1 117.208 76.9C117.541 77.7667 118.008 78.4 118.608 78.8C119.274 79.2667 119.941 79.5 120.608 79.5ZM103.508 57.2C104.241 57.2 104.908 57.1667 105.508 57.1C106.174 57.0333 106.841 56.9333 107.508 56.8C108.708 55 110.108 53.2333 111.708 51.5C113.308 49.7 115.108 47.9667 117.108 46.3C119.108 44.6333 121.308 43.0667 123.708 41.6V35.1C123.708 32.2333 123.208 29.5667 122.208 27.1C121.274 24.6333 119.908 22.5 118.108 20.7C116.374 18.9 114.308 17.5 111.908 16.5C109.574 15.5 107.008 15 104.208 15C101.408 15 98.8078 15.5333 96.4078 16.6C94.0745 17.6 92.0078 19.0667 90.2078 21C88.4745 22.9333 87.1078 25.2 86.1078 27.8C85.1745 30.3333 84.7078 33.1 84.7078 36.1C84.7078 39.1 85.1411 41.8667 86.0078 44.4C86.9411 46.9333 88.2411 49.1667 89.9078 51.1C91.6411 52.9667 93.6411 54.4333 95.9078 55.5C98.2411 56.5667 100.774 57.1333 103.508 57.2Z" fill="url(#paint0_linear_351_148)"/>
<defs>
<linearGradient id="paint0_linear_351_148" x1="-6" y1="36.5" x2="145" y2="36.5" gradientUnits="userSpaceOnUse">
<stop stop-color="#0A4C6A"/>
<stop offset="0.9" stop-color="#26D1DB"/>
</linearGradient>
</defs>
</svg>
